<svg width="320" height="240" viewBox="0 0 320 240" fill="none" xmlns="http://www.w3.org/2000/svg">
  <rect width="320" height="240" rx="14" fill="#FFFFFF"/>
  <rect x="14" y="14" width="292" height="212" rx="12" fill="#FFFFFF" stroke="#D1D5DB" stroke-width="2"/>
  <path d="M136 64C136 56.268 142.268 50 150 50C157.732 50 164 56.268 164 64V104" stroke="#0B1E4B" stroke-width="6" stroke-linecap="round"/>
  <path d="M164 60C164 52.268 170.268 46 178 46C185.732 46 192 52.268 192 60V110" stroke="#0B1E4B" stroke-width="6" stroke-linecap="round"/>
  <path d="M192 66C192 58.268 198.268 52 206 52C213.732 52 220 58.268 220 66V116" stroke="#0B1E4B" stroke-width="6" stroke-linecap="round"/>
  <path d="M121 104C112.716 104 106 110.716 106 119V150C106 176.51 127.49 198 154 198H175C192.121 198 206 184.121 206 167V122" fill="#EEF3F8"/>
  <path d="M121 104C112.716 104 106 110.716 106 119V150C106 176.51 127.49 198 154 198H175C192.121 198 206 184.121 206 167V122" stroke="#0B1E4B" stroke-width="6"/>
  <path d="M108 160C121 151 128 137 129 120" stroke="#1D3B7A" stroke-width="5" stroke-linecap="round"/>
  <rect x="134" y="184" width="82" height="18" rx="6" fill="#F4B000"/>
</svg>
