<svg width="320" height="240" viewBox="0 0 320 240" fill="none" xmlns="http://www.w3.org/2000/svg">
  <rect width="320" height="240" rx="14" fill="#FFFFFF"/>
  <rect x="14" y="14" width="292" height="212" rx="12" fill="#FFFFFF" stroke="#D1D5DB" stroke-width="2"/>
  <path d="M112 82C112 71.5066 120.507 63 131 63H188C198.493 63 207 71.5066 207 82V188C207 198.493 198.493 207 188 207H131C120.507 207 112 198.493 112 188V82Z" fill="#EEF3F8" stroke="#0B1E4B" stroke-width="5"/>
  <path d="M156 52H194V72H170C162.268 72 156 65.732 156 58V52Z" fill="#1D3B7A"/>
  <rect x="127" y="110" width="65" height="48" rx="8" fill="#FFFFFF" stroke="#1D3B7A" stroke-width="4"/>
  <path d="M136 143L150 127L162 138L180 120" stroke="#F4B000" stroke-width="6" stroke-linecap="round" stroke-linejoin="round"/>
  <path d="M128 175H191" stroke="#1D3B7A" stroke-width="5" stroke-linecap="round" opacity="0.35"/>
</svg>
